<svg width="45" height="45" viewBox="0 0 45 45" fill="none" xmlns="http://www.w3.org/2000/svg">
<g clip-path="url(#clip0_78_2303)">
<path d="M22.5 22.5H5.625V25.3125H22.5V22.5Z" fill="#43563F"/>
<path d="M16.875 15.4688H2.8125V18.2812H16.875V15.4688Z" fill="#43563F"/>
<path d="M42.0735 23.3527L37.8547 13.509C37.7466 13.2558 37.5665 13.0401 37.3368 12.8884C37.107 12.7368 36.8378 12.6561 36.5625 12.6562H32.3438V9.84375C32.3438 9.47079 32.1956 9.1131 31.9319 8.84938C31.6681 8.58566 31.3105 8.4375 30.9375 8.4375H8.4375V11.25H29.5313V28.9072C28.8905 29.2792 28.3298 29.7745 27.8814 30.3643C27.433 30.9541 27.1058 31.6269 26.9186 32.3438H18.0814C17.7392 31.0181 16.9252 29.8629 15.792 29.0945C14.6589 28.3261 13.2844 27.9973 11.9263 28.1698C10.5681 28.3423 9.31945 29.0043 8.41441 30.0315C7.50936 31.0588 7.01004 32.3809 7.01004 33.75C7.01004 35.1191 7.50936 36.4412 8.41441 37.4685C9.31945 38.4957 10.5681 39.1577 11.9263 39.3302C13.2844 39.5027 14.6589 39.1739 15.792 38.4055C16.9252 37.6371 17.7392 36.4819 18.0814 35.1562H26.9186C27.2252 36.3625 27.9251 37.4321 28.9076 38.1961C29.8901 38.9601 31.0992 39.3749 32.3438 39.3749C33.5883 39.3749 34.7974 38.9601 35.7799 38.1961C36.7624 37.4321 37.4623 36.3625 37.7689 35.1562H40.7812C41.1542 35.1562 41.5119 35.0081 41.7756 34.7444C42.0393 34.4806 42.1875 34.123 42.1875 33.75V23.9062C42.1875 23.7159 42.1487 23.5276 42.0735 23.3527ZM12.6563 36.5625C12.1 36.5625 11.5562 36.3975 11.0937 36.0885C10.6312 35.7795 10.2707 35.3402 10.0578 34.8263C9.84497 34.3124 9.78927 33.7469 9.89779 33.2013C10.0063 32.6557 10.2742 32.1546 10.6675 31.7613C11.0608 31.3679 11.562 31.1001 12.1076 30.9915C12.6531 30.883 13.2186 30.9387 13.7325 31.1516C14.2465 31.3645 14.6857 31.7249 14.9948 32.1875C15.3038 32.65 15.4688 33.1937 15.4688 33.75C15.4679 34.4957 15.1713 35.2105 14.644 35.7378C14.1168 36.2651 13.4019 36.5616 12.6563 36.5625ZM32.3438 15.4688H35.6355L38.6492 22.5H32.3438V15.4688ZM32.3438 36.5625C31.7875 36.5625 31.2437 36.3975 30.7812 36.0885C30.3187 35.7795 29.9582 35.3402 29.7453 34.8263C29.5325 34.3124 29.4768 33.7469 29.5853 33.2013C29.6938 32.6557 29.9617 32.1546 30.355 31.7613C30.7483 31.3679 31.2495 31.1001 31.7951 30.9915C32.3406 30.883 32.9061 30.9387 33.42 31.1516C33.934 31.3645 34.3732 31.7249 34.6823 32.1875C34.9913 32.65 35.1563 33.1937 35.1563 33.75C35.1554 34.4957 34.8588 35.2105 34.3315 35.7378C33.8043 36.2651 33.0894 36.5616 32.3438 36.5625ZM39.375 32.3438H37.7689C37.4591 31.1393 36.7584 30.0716 35.7766 29.3082C34.7948 28.5447 33.5874 28.1286 32.3438 28.125V25.3125H39.375V32.3438Z" fill="#43563F"/>
</g>
<defs>
<clipPath id="clip0_78_2303">
<rect width="45" height="45" fill="white"/>
</clipPath>
</defs>
</svg>
