<svg width="40" height="40" viewBox="0 0 40 40" fill="none" xmlns="http://www.w3.org/2000/svg">
<g clip-path="url(#clip0_78_2313)">
<path d="M39.5965 19.003L35.6434 14.9172L36.44 9.28742C36.5484 8.52175 36.03 7.80826 35.2682 7.67466L29.6685 6.69282L27.0039 1.67029C26.6415 0.987002 25.8023 0.715024 25.1081 1.05428L19.9999 3.55159L14.8921 1.05447C14.1972 0.714833 13.3587 0.987385 12.9961 1.67049L10.3316 6.69302L4.73183 7.67485C3.97018 7.80826 3.45164 8.52194 3.56001 9.28761L4.35645 14.9174L0.403299 19.003C-0.134352 19.5586 -0.134352 20.4407 0.403299 20.9965L4.35626 25.0825L3.55982 30.7124C3.45164 31.4779 3.96999 32.1914 4.73145 32.3252L10.3314 33.3076L12.9961 38.3295C13.3585 39.0126 14.1972 39.2852 14.892 38.9455L19.9997 36.449L25.1081 38.9455C25.3105 39.0445 25.5249 39.0914 25.7365 39.0914C26.2508 39.0914 26.7468 38.8135 27.0037 38.3295L29.6685 33.3076L35.2684 32.3252C36.0299 32.1916 36.5484 31.4779 36.44 30.7124L35.6434 25.0825L39.5967 20.9965C40.1344 20.4407 40.1344 19.5588 39.5965 19.003ZM33.0958 23.5928C32.7885 23.9104 32.6449 24.3525 32.7069 24.7904L33.4073 29.7411L28.4831 30.605C28.0477 30.6814 27.6717 30.9546 27.4645 31.345L25.1213 35.7611L20.6293 33.5658C20.4307 33.4687 20.2153 33.4201 19.9997 33.4201C19.7843 33.4201 19.5689 33.4687 19.3703 33.5658L14.8788 35.7611L12.5355 31.345C12.3283 30.9546 11.9524 30.6814 11.517 30.605L6.59268 29.7411L7.29298 24.7904C7.35491 24.3527 7.21137 23.9106 6.90384 23.593L3.42794 19.9999L6.90384 16.4072C7.21118 16.0896 7.35491 15.6475 7.29298 15.2098L6.59268 10.2593L11.5168 9.39598C11.9524 9.31972 12.3283 9.0464 12.5357 8.65593L14.8788 4.23928L19.3701 6.43518C19.7673 6.62956 20.2318 6.62956 20.6293 6.43518L25.1211 4.23928L27.4643 8.65593C27.6715 9.0464 28.0475 9.31972 28.4831 9.39598L33.4072 10.2593L32.7067 15.2098C32.6447 15.6477 32.7883 16.0896 33.0958 16.4074L36.5717 19.9999L33.0958 23.5928Z" fill="#43563F"/>
<path d="M15.447 18.9179C17.361 18.9179 18.9179 17.361 18.9179 15.4474C18.9179 13.533 17.361 11.9757 15.447 11.9757C13.5328 11.9757 11.9757 13.533 11.9757 15.4474C11.9757 17.3612 13.533 18.9179 15.447 18.9179ZM15.447 14.2692C16.0963 14.2692 16.6244 14.7977 16.6244 15.4474C16.6244 16.0965 16.0961 16.6244 15.447 16.6244C14.7975 16.6244 14.2692 16.0963 14.2692 15.4474C14.2692 14.7977 14.7975 14.2692 15.447 14.2692Z" fill="#43563F"/>
<path d="M26.924 13.076C26.4764 12.6282 25.7499 12.628 25.3025 13.076L13.0762 25.3021C12.6284 25.7499 12.6284 26.476 13.0762 26.9238C13.3002 27.1478 13.5936 27.2596 13.8872 27.2596C14.1806 27.2596 14.4741 27.1476 14.6982 26.9238L26.9242 14.6978C27.3718 14.2499 27.3718 13.5238 26.924 13.076Z" fill="#43563F"/>
<path d="M24.5526 21.0819C22.6389 21.0819 21.0821 22.6389 21.0821 24.5525C21.0821 26.4668 22.639 28.0242 24.5526 28.0242C26.467 28.0242 28.0243 26.4668 28.0243 24.5525C28.0243 22.6389 26.467 21.0819 24.5526 21.0819ZM24.5526 25.7308C23.9038 25.7308 23.3757 25.2023 23.3757 24.5527C23.3757 23.9038 23.9038 23.3757 24.5526 23.3757C25.2021 23.3757 25.7308 23.9038 25.7308 24.5527C25.7308 25.2021 25.2023 25.7308 24.5526 25.7308Z" fill="#43563F"/>
</g>
<defs>
<clipPath id="clip0_78_2313">
<rect width="40" height="40" fill="white"/>
</clipPath>
</defs>
</svg>
