<svg width="40" height="40" viewBox="0 0 40 40" fill="none" xmlns="http://www.w3.org/2000/svg">
<g clip-path="url(#clip0_78_2290)">
<path d="M26.9637 18.7537C26.9133 18.6113 26.8018 18.5094 26.6698 18.4626L26.6705 18.4605C25.3117 17.9793 23.4674 18.9955 22.5919 19.8709C21.8052 20.6575 21.6346 21.8054 22.1155 22.6318L20.4801 24.2708V21.107C21.596 20.8538 22.4392 19.7387 22.4392 18.4051C22.4392 16.6944 21.5854 14.4408 20.2059 13.783C20.0694 13.718 19.9189 13.7248 19.7923 13.785L19.7914 13.783C18.4117 14.4407 17.5577 16.6943 17.5577 18.4051C17.5577 19.7387 18.401 20.8537 19.517 21.1069V24.2453L17.8941 22.6191C18.3748 21.7928 18.2041 20.6449 17.4176 19.8584C16.5423 18.9831 14.698 17.9669 13.339 18.4481L13.3398 18.4501C13.2078 18.497 13.0964 18.5988 13.046 18.7412C12.5642 20.1005 13.5806 21.9446 14.456 22.8199C14.95 23.3139 15.5867 23.5658 16.197 23.5658C16.5565 23.5658 16.9057 23.4761 17.2121 23.2991L19.517 25.6086V26.8144C19.517 27.0803 19.7326 27.2959 19.9986 27.2959C20.2646 27.2959 20.4802 27.0803 20.4802 26.8144V25.6342L22.7978 23.3117C23.1041 23.4887 23.4532 23.5783 23.8128 23.5783C24.4229 23.5783 25.0598 23.3263 25.5537 22.8324C26.4289 21.9573 27.4452 20.1131 26.9637 18.7537ZM15.1369 22.1388C14.4177 21.4199 13.796 20.1313 13.8989 19.3012C14.7289 19.1984 16.0173 19.8203 16.7365 20.5393C17.1292 20.932 17.2792 21.4597 17.1651 21.8887L15.988 20.7092C15.8002 20.5208 15.4953 20.5206 15.3069 20.7085C15.1188 20.8963 15.1184 21.2011 15.3063 21.3894L16.4828 22.5684C16.0545 22.6808 15.5286 22.5307 15.1369 22.1388ZM18.5207 18.405C18.5207 17.1093 19.1179 15.3924 19.9985 14.775C20.8791 15.3925 21.4761 17.1094 21.4761 18.405C21.4761 19.1889 21.0588 19.8552 20.4801 20.0983V17.8858C20.4801 17.6198 20.2645 17.4042 19.9985 17.4042C19.7325 17.4042 19.517 17.6198 19.517 17.8858V20.0983C18.9381 19.8551 18.5207 19.1888 18.5207 18.405ZM24.8725 22.1513C24.4808 22.5431 23.9551 22.6934 23.5267 22.581L24.7157 21.3895C24.9036 21.2012 24.9032 20.8963 24.715 20.7086C24.5266 20.5207 24.2218 20.521 24.034 20.7093L22.8444 21.9014C22.7301 21.4725 22.8801 20.9448 23.273 20.5519C23.992 19.833 25.2802 19.2108 26.1104 19.3137C26.2134 20.1439 25.5916 21.4325 24.8725 22.1513Z" fill="#43563F"/>
<path d="M19.9985 29.1935C14.9264 29.1935 10.7999 25.0671 10.7999 19.9951C10.7999 14.9232 14.9264 10.7968 19.9985 10.7968C25.0706 10.7968 29.1971 14.9232 29.1971 19.9951C29.197 25.0672 25.0706 29.1935 19.9985 29.1935ZM19.9985 11.7599C15.4575 11.7599 11.763 15.4542 11.763 19.9951C11.763 24.5362 15.4574 28.2304 19.9985 28.2304C24.5396 28.2304 28.234 24.5362 28.234 19.9951C28.2339 15.4542 24.5395 11.7599 19.9985 11.7599Z" fill="#43563F"/>
<path d="M32.9691 34.7035C32.391 34.4276 31.8335 34.413 31.3901 34.4823C33.725 24.991 33.7252 15.0016 31.3906 5.51009C31.5278 5.53148 31.675 5.54534 31.8315 5.54534C32.1805 5.54534 32.5702 5.47908 32.9691 5.28877C34.2316 4.68626 35.0857 3.09377 35.4769 0.55099C35.5485 0.0852346 35.0881 -0.0171431 34.9265 0.0021189L34.9261 0.000192699C32.3849 0.40171 30.7909 1.24548 30.1885 2.50801C29.9808 2.94324 29.9225 3.36642 29.9352 3.73885C29.4162 3.53266 28.6987 3.33108 27.7083 3.14684C25.6444 2.76285 22.9064 2.55135 19.9984 2.55135C17.0905 2.55135 14.3524 2.76285 12.2883 3.14684C11.2987 3.33098 10.5815 3.53237 10.0627 3.73847C10.0752 3.36623 10.0159 2.94285 9.80831 2.50811C9.20589 1.24548 7.61186 0.401806 5.07081 0.000192699L5.07043 0.00221521C4.73036 -0.00491174 4.4785 0.288256 4.52001 0.55099C4.92143 3.09223 5.7653 4.68626 7.02783 5.28877C7.42665 5.47918 7.81642 5.54534 8.16535 5.54534C8.32176 5.54534 8.46902 5.53157 8.60607 5.51029C6.2717 15.0016 6.2719 24.991 8.60665 34.4823C8.16323 34.4131 7.60425 34.4248 7.02783 34.7035C5.50796 35.4386 4.51395 38.8959 4.52001 39.5916C4.52204 39.8317 4.76214 39.998 4.99502 39.998C5.48263 39.998 9.18566 39.023 9.8084 37.4843C9.98937 37.0371 10.0755 36.6245 10.0628 36.2518C10.5818 36.4579 11.2988 36.6592 12.2884 36.8434C14.3525 37.2275 17.0905 37.439 19.9983 37.439C22.9062 37.439 25.6443 37.2276 27.7084 36.8434C28.6983 36.6593 29.4157 36.4578 29.9345 36.2516C29.9216 36.6244 29.9807 37.0486 30.1886 37.4843C30.7911 38.7468 32.3895 39.564 34.9262 39.9921C35.0304 40.0097 35.0765 39.9921 35.0765 39.9921C35.3393 39.9505 35.5186 39.7039 35.477 39.4413C35.0756 36.9001 34.2317 35.306 32.9691 34.7035ZM31.0578 2.92282C31.4606 2.07895 32.6114 1.44552 34.4023 1.07434C34.0327 2.85733 33.4033 4.00746 32.5647 4.41457C31.9251 4.72507 31.3097 4.53264 31.0544 4.42458C30.9494 4.17244 30.7567 3.55375 31.0578 2.92282ZM12.7543 4.04175C14.7263 3.70168 17.2988 3.51445 19.9985 3.51445C22.698 3.51445 25.2707 3.70168 27.2425 4.04185C29.5187 4.43441 30.2109 4.90016 30.2962 5.05821C30.2963 5.05869 30.2964 5.05917 30.2965 5.05975C30.2969 5.07044 30.4203 5.59398 30.4738 5.81222C29.906 5.58233 29.0778 5.35369 27.8639 5.14643C25.7339 4.78266 22.9405 4.58234 19.9983 4.58234C17.0581 4.58234 14.2659 4.78247 12.136 5.14595C10.9201 5.3534 10.0913 5.58223 9.52304 5.81212C9.57649 5.59398 9.70054 5.05878 9.70063 5.0583C9.78587 4.90007 10.4782 4.43431 12.7543 4.04175ZM7.44254 4.41957C6.59868 4.0169 5.96524 2.866 5.59406 1.07501C7.37696 1.44465 8.527 2.07394 8.9341 2.91242C9.24518 3.55307 9.05179 4.16946 8.94441 4.42285C8.69255 4.52783 8.07366 4.72083 7.44254 4.41957ZM8.9392 37.0696C8.53644 37.9133 7.38563 38.5469 5.59474 38.9179C5.96438 37.1349 6.59367 35.9849 7.43224 35.5776C8.07183 35.267 8.68706 35.4594 8.94257 35.5676C9.04755 35.8197 9.24037 36.4385 8.9392 37.0696ZM30.2962 34.9321C30.2109 35.0903 29.5186 35.5561 27.2423 35.9486C25.2705 36.2885 22.6978 36.4759 19.9983 36.4759C17.2988 36.4759 14.7263 36.2886 12.7545 35.9486C10.4782 35.5561 9.78587 35.0903 9.70063 34.9321C9.70054 34.9315 9.57687 34.3964 9.52342 34.1782C10.0912 34.4081 10.9192 34.6368 12.133 34.844C14.2631 35.2078 17.0567 35.4082 19.9987 35.4082C22.9387 35.4082 25.7311 35.2081 27.861 34.8444C29.0765 34.6371 29.9053 34.4083 30.4734 34.1784C30.4199 34.3966 30.2962 34.9315 30.2962 34.9321ZM27.5543 33.9194C25.4955 34.2584 22.8122 34.4451 19.9987 34.4451C17.185 34.4451 14.5019 34.2583 12.4431 33.9196C10.0116 33.5193 9.29305 33.0377 9.22419 32.8949C9.22399 32.8943 9.22361 32.8938 9.22351 32.8932C7.34893 24.4159 7.34932 15.577 9.22341 7.0996C9.3073 6.943 10.0352 6.46722 12.4425 6.07091C14.5013 5.7319 17.1848 5.54525 19.9983 5.54525C22.812 5.54525 25.4953 5.7319 27.5539 6.07081C29.9805 6.47021 30.701 6.95051 30.7722 7.0944C32.6473 15.5721 32.6483 24.4115 30.7742 32.8893C30.6933 33.045 29.9677 33.522 27.5543 33.9194ZM31.0628 37.0799C30.7517 36.4391 30.9451 35.8226 31.0525 35.5693C31.3043 35.4644 31.9232 35.2715 32.5543 35.5727C33.3982 35.9753 34.0317 37.1261 34.4028 38.9172C32.6199 38.5476 31.4699 37.9183 31.0628 37.0799Z" fill="#43563F"/>
</g>
<defs>
<clipPath id="clip0_78_2290">
<rect width="40" height="40" fill="white"/>
</clipPath>
</defs>
</svg>
