<svg width="37" height="37" viewBox="0 0 37 37" fill="none" xmlns="http://www.w3.org/2000/svg">
<path d="M35.4421 20.6926V8.70043C35.4421 7.08977 34.1318 5.77938 32.5211 5.77938H29.9563L28.8318 2.68012C28.592 2.01911 28.0725 1.5118 27.4067 1.28836C26.7417 1.0652 26.0228 1.15618 25.4343 1.53796L22.8046 3.24321L22.6003 2.68012C22.3604 2.01911 21.841 1.5118 21.1751 1.28836C20.5101 1.0652 19.7913 1.15618 19.2028 1.53796L17.825 2.43131C17.5543 2.60684 17.4772 2.9686 17.6528 3.23931C17.8284 3.51009 18.1901 3.58713 18.4608 3.41159L19.8386 2.51825C20.1264 2.33144 20.4781 2.28692 20.8035 2.39604C21.1297 2.50545 21.3843 2.75427 21.5021 3.07867L21.7985 3.8957L12.8746 9.68259H8.79039L16.481 4.69554C16.7517 4.51993 16.8288 4.15824 16.6533 3.88753C16.4776 3.61676 16.116 3.53965 15.8452 3.71525L12.6548 5.78429C12.6304 5.78111 12.6054 5.77952 12.58 5.77952H4.47895C2.0092 5.77945 0 7.78858 0 10.2583V32.1316C0 34.1718 1.65987 35.8316 3.7 35.8316H31.7421C33.7822 35.8316 35.4421 34.1718 35.4421 32.1317V29.7559C35.4421 29.4332 35.1806 29.1717 34.8579 29.1717C34.5352 29.1717 34.2737 29.4333 34.2737 29.7559V32.1317C34.2737 33.5276 33.1381 34.6633 31.7421 34.6633H6.62105V17.2926C6.62105 16.9699 6.35952 16.7084 6.03685 16.7084C5.71419 16.7084 5.45266 16.97 5.45266 17.2926V34.6632H3.7C2.30405 34.6632 1.16839 33.5276 1.16839 32.1316V13.2891C1.98817 14.1889 3.1687 14.7542 4.47888 14.7542H32.521C33.178 14.7542 33.7851 14.5361 34.2736 14.1686V20.6116H23.1736C21.1335 20.6116 19.4736 22.2714 19.4736 24.3115V24.3252C19.4736 26.3653 21.1335 28.0251 23.1736 28.0251H34.8578C36.0389 28.0251 36.9999 27.0642 36.9999 25.883V22.7537C37 21.775 36.3402 20.9475 35.4421 20.6926ZM32.5211 6.94777C33.4874 6.94777 34.2737 7.73394 34.2737 8.70043V9.68259H31.3727L30.3804 6.94777H32.5211ZM32.5211 13.5858H4.47895C2.65352 13.5858 1.16846 12.1007 1.16846 10.2754V10.2583C1.16846 8.43297 2.65352 6.94791 4.47895 6.94791H10.8603L6.64295 9.68273H5.2579C4.93516 9.68273 4.67371 9.94433 4.67371 10.2669C4.67371 10.5896 4.93516 10.8511 5.2579 10.8511H6.80742C6.81335 10.8512 6.81927 10.8512 6.82527 10.8511H13.039C13.045 10.8512 13.0509 10.8512 13.0569 10.8511H24.7316C25.0543 10.8511 25.3158 10.5895 25.3158 10.2669C25.3158 9.94426 25.0543 9.68273 24.7316 9.68273H15.022L26.0701 2.51846C26.358 2.33166 26.7095 2.28714 27.0351 2.39626C27.3613 2.50567 27.6159 2.75448 27.7335 3.07888L30.1297 9.6828H27.0685C26.7458 9.6828 26.4843 9.94441 26.4843 10.267C26.4843 10.5897 26.7458 10.8512 27.0685 10.8512H30.9497C30.9588 10.8514 30.9678 10.8514 30.9769 10.8512H34.2737V11.8334C34.2737 12.7996 33.4874 13.5858 32.5211 13.5858ZM35.8316 25.8831C35.8316 26.42 35.3948 26.8568 34.8579 26.8568H23.1737C21.7778 26.8568 20.6421 25.7211 20.6421 24.3253V24.3116C20.6421 22.9157 21.7778 21.78 23.1737 21.78H34.8509C34.8549 21.7801 34.8592 21.7801 34.8635 21.78C35.3977 21.783 35.8316 22.2187 35.8316 22.7537V25.8831Z" fill="#43563F"/>
<path d="M23.5631 22.5633C22.5968 22.5633 21.8105 23.3506 21.8105 24.3184C21.8105 25.2862 22.5967 26.0735 23.5631 26.0735C24.5296 26.0735 25.3158 25.2863 25.3158 24.3184C25.3158 23.3506 24.5296 22.5633 23.5631 22.5633ZM23.5631 24.9052C23.241 24.9052 22.9789 24.642 22.9789 24.3184C22.9789 23.9948 23.241 23.7316 23.5631 23.7316C23.8853 23.7316 24.1473 23.9948 24.1473 24.3184C24.1473 24.642 23.8853 24.9052 23.5631 24.9052Z" fill="#43563F"/>
</svg>
